<svg xmlns="http://www.w3.org/2000/svg" version="1.1" xmlns:xlink="http://www.w3.org/1999/xlink" xmlns:svgjs="http://svgjs.dev/svgjs" width="1000" height="1000" viewBox="0 0 1000 1000"><rect width="1000" height="1000" fill="#000000"></rect><g transform="matrix(0.7,0,0,0.7,149.57575757575756,252.30255000000002)"><svg viewBox="0 0 396 280" data-background-color="#102e44" preserveAspectRatio="xMidYMid meet" height="707" width="1000" xmlns="http://www.w3.org/2000/svg" xmlns:xlink="http://www.w3.org/1999/xlink"><g id="tight-bounds" transform="matrix(1,0,0,1,0.2400000000000091,0.13999999999998636)"><svg viewBox="0 0 395.52 279.72" height="279.72" width="395.52"><g><svg viewBox="0 0 395.52 279.72" height="279.72" width="395.52"><g><svg viewBox="0 0 395.52 279.72" height="279.72" width="395.52"><g><svg viewBox="0 0 395.52 279.72" height="279.72" width="395.52"><g><svg viewBox="0 0 395.52 279.72" height="279.72" width="395.52"><g transform="matrix(1,0,0,1,95.70146727714408,57.44670465270788)"><svg viewBox="0 0 204.11706544571183 164.82659069458427" height="164.82659069458427" width="204.11706544571183"><g><circle r="82" cx="102.05853272285592" cy="82.41329534729213" fill="#ffffff" data-fill-palette-color="accent"></circle><svg xmlns="http://www.w3.org/2000/svg" xmlns:xlink="http://www.w3.org/1999/xlink" version="1.1" x="34.95935926186291" y="34.95935926186291" viewBox="6.300000190734863 11.5 87.39999389648438 77" style="enable-background:new 0 0 100 100;" xml:space="preserve" height="94.90787217085845" width="134.198346921986" class="icon-o-0" data-fill-palette-color="quaternary" id="o-0"><path d="M72.3 12.3L72.3 12.3 72.3 12.3l-0.4-0.8H28.2L6.3 50l21.8 38.5h43.7L93.7 50 72.3 12.3zM33.3 25.3L9.9 47.7l18.6-32.8L33.3 25.3zM70.7 14.8l6.4 35.7L36.9 25.8 70.7 14.8zM35.5 27.3l41 25.2-41 23.3V27.3zM77 54.5l-7.2 30.8-32.6-8.1L77 54.5zM33.5 75L9.9 50.5l23.6-22.7V75zM33.2 77.6l-4.6 7.7L11.5 55.1 33.2 77.6zM35 78.6l31.4 7.9H30.2L35 78.6zM79.3 53.3l11.6-2.5L72.1 84 79.3 53.3zM90.7 48.9l-11.4 2.5-5.9-33.1L90.7 48.9zM35 24.3l-5-10.8h38.2L35 24.3z" fill="#102e44" data-fill-palette-color="quaternary"></path></svg></g></svg></g><path d="M91.385 102.134C90.25 105.315 88.411 107.466 85.869 108.587 83.329 109.702 79.625 109.391 74.757 107.653V107.653L73.764 107.298C68.902 105.563 65.842 103.459 64.583 100.987 63.326 98.509 63.265 95.68 64.4 92.5V92.5C65.538 89.313 67.378 87.159 69.92 86.037 72.46 84.922 76.161 85.233 81.022 86.968V86.968L82.016 87.323C86.884 89.061 89.947 91.166 91.206 93.637 92.463 96.115 92.523 98.948 91.385 102.134ZM89.548 101.478C90.45 98.954 90.379 96.695 89.336 94.703 88.302 92.706 85.769 90.988 81.739 89.549V89.549L79.827 88.866C75.803 87.43 72.755 87.155 70.684 88.043 68.621 88.927 67.139 90.631 66.238 93.156V93.156C65.338 95.674 65.406 97.931 66.44 99.928 67.483 101.921 70.017 103.635 74.041 105.072V105.072L75.953 105.755C79.983 107.194 83.03 107.471 85.093 106.588 87.164 105.7 88.649 103.997 89.548 101.478ZM111.519 67.412L91.484 48.085 99.402 39.877C100.36 38.883 101.486 38.204 102.779 37.838 104.077 37.467 105.376 37.444 106.677 37.768 107.983 38.087 109.132 38.725 110.126 39.684V39.684C111.119 40.642 111.801 41.77 112.171 43.067 112.542 44.356 112.565 45.655 112.242 46.966 111.923 48.271 111.284 49.421 110.326 50.414V50.414L103.928 57.047 113.039 65.836ZM108.75 49.295C109.464 48.555 109.953 47.69 110.217 46.699 110.471 45.709 110.463 44.724 110.192 43.744 109.911 42.763 109.401 41.916 108.661 41.202V41.202C107.921 40.488 107.063 40.016 106.087 39.784 105.102 39.553 104.122 39.585 103.147 39.88 102.167 40.179 101.32 40.698 100.606 41.439V41.439L94.408 47.864 102.552 55.72ZM156.309 8.272L147.573 11.782 157.223 35.803 155.266 36.589 145.615 12.569 136.879 16.079 136.152 14.269 155.582 6.462ZM191.247 2.268L191.183 0.278 199.787 0 199.852 1.989 196.639 2.093 197.41 25.937 200.623 25.833 200.687 27.823 192.083 28.101 192.019 26.111 195.222 26.008 194.45 2.164ZM230.525 32.843L239.86 6.618 241.923 7.352 236.386 22.908 255.8 12.292 258.247 13.163 243.977 20.961 249.222 39.498 246.624 38.574 242.004 22.023 235.418 25.627 232.588 33.578ZM277.811 61.359C275.349 59.048 274.111 56.503 274.099 53.725 274.091 50.951 275.855 47.679 279.393 43.911V43.911L280.115 43.142C283.647 39.378 286.798 37.412 289.567 37.245 292.341 37.082 294.959 38.156 297.421 40.467V40.467C299.888 42.783 301.128 45.33 301.141 48.109 301.149 50.883 299.387 54.152 295.854 57.915V57.915L295.132 58.685C291.595 62.453 288.442 64.421 285.673 64.589 282.899 64.752 280.279 63.675 277.811 61.359ZM279.146 59.937C281.101 61.771 283.2 62.609 285.443 62.448 287.687 62.298 290.273 60.662 293.202 57.542V57.542L294.591 56.061C297.516 52.946 298.984 50.261 298.998 48.008 299.011 45.764 298.041 43.724 296.086 41.89V41.89C294.137 40.06 292.04 39.22 289.796 39.371 287.553 39.531 284.969 41.169 282.045 44.285V44.285L280.655 45.765C277.726 48.885 276.255 51.568 276.242 53.812 276.229 56.065 277.197 58.107 279.146 59.937ZM326.322 100.232L327.151 99.892C328.649 99.279 329.54 98.189 329.824 96.625 330.102 95.063 329.846 93.318 329.056 91.39V91.39C328.246 89.413 327.227 87.973 325.997 87.072 324.767 86.17 323.351 86.047 321.748 86.704V86.704C320.692 87.136 319.973 87.797 319.591 88.685 319.216 89.57 319.033 90.551 319.045 91.63 319.062 92.705 319.195 94.113 319.442 95.855V95.855C319.718 97.964 319.864 99.694 319.878 101.043 319.896 102.398 319.59 103.681 318.96 104.893 318.328 106.098 317.199 107.034 315.572 107.701V107.701C312.993 108.757 310.762 108.685 308.88 107.484 306.997 106.284 305.501 104.33 304.392 101.622V101.622C303.245 98.822 302.905 96.33 303.372 94.145 303.836 91.969 305.373 90.347 307.982 89.278V89.278L308.67 89.039 309.454 90.955 308.426 91.333C306.597 92.082 305.536 93.291 305.244 94.96 304.946 96.63 305.244 98.556 306.136 100.735V100.735C308.126 105.592 310.959 107.267 314.637 105.76V105.76C315.816 105.277 316.632 104.556 317.085 103.596 317.538 102.636 317.757 101.596 317.743 100.476 317.722 99.359 317.593 97.871 317.355 96.011V96.011C317.099 93.95 316.97 92.279 316.968 90.996 316.969 89.705 317.266 88.486 317.858 87.34 318.453 86.186 319.515 85.296 321.044 84.669V84.669C323.144 83.809 325.053 83.97 326.77 85.152 328.482 86.337 329.84 88.157 330.846 90.613V90.613C331.882 93.143 332.174 95.422 331.722 97.45 331.263 99.481 329.882 100.967 327.58 101.911V101.911L327.092 102.111ZM92.07 190.55L92.888 190.266C94.38 189.748 95.301 188.741 95.652 187.242 96.01 185.742 95.858 184.039 95.197 182.133V182.133C94.519 180.177 93.606 178.731 92.46 177.794 91.313 176.858 89.947 176.665 88.361 177.215V177.215C87.32 177.576 86.594 178.175 86.183 179.013 85.765 179.853 85.533 180.794 85.487 181.835 85.447 182.875 85.501 184.246 85.65 185.95V185.95C85.807 188.003 85.857 189.685 85.799 190.997 85.742 192.309 85.372 193.533 84.692 194.668 84.019 195.807 82.878 196.656 81.267 197.215V197.215C78.715 198.1 76.56 197.91 74.801 196.645 73.042 195.38 71.698 193.409 70.77 190.732V190.732C69.807 187.955 69.609 185.524 70.178 183.437 70.749 181.357 72.322 179.87 74.898 178.977V178.977L75.579 178.783 76.235 180.673 75.225 180.981C73.413 181.609 72.322 182.725 71.951 184.329 71.572 185.928 71.756 187.806 72.504 189.962V189.962C74.172 194.77 76.827 196.543 80.469 195.279V195.279C81.635 194.875 82.464 194.219 82.957 193.31 83.445 192.411 83.711 191.416 83.755 190.326 83.794 189.245 83.748 187.797 83.617 185.981V185.981C83.477 183.979 83.441 182.355 83.508 181.11 83.581 179.863 83.935 178.697 84.57 177.613 85.207 176.535 86.281 175.734 87.792 175.21V175.21C89.873 174.488 91.711 174.746 93.306 175.984 94.901 177.221 96.12 179.053 96.961 181.479V181.479C97.829 183.98 97.988 186.201 97.439 188.14 96.898 190.083 95.486 191.45 93.205 192.242V192.242L92.716 192.411ZM86.937 222.196L78.431 207.398 101.832 193.947 110.144 208.408 108.306 209.006 101.249 196.727 92.24 201.905 98.495 212.786 96.864 213.723 90.61 202.842 81.127 208.293 88.363 220.882ZM103.266 241.406L92.169 228.438 112.677 210.889 123.522 223.563 121.826 224.49 112.618 213.729 104.724 220.485 112.883 230.02 111.454 231.243 103.295 221.708 94.984 228.819 104.425 239.852ZM130.754 262.102L117.608 253.027 132.942 230.814 134.687 232.019 120.427 252.675 131.435 260.274ZM152.496 272.097L136.995 264.953 148.292 240.44 163.441 247.422 162.288 248.973 149.426 243.045 145.077 252.481 156.475 257.734 155.687 259.442 144.289 254.19 139.711 264.123 152.899 270.201ZM178.786 278.101L177.491 270.969 163.582 267.91 159.453 273.85 157.305 273.378 174.017 249.417 175.932 249.838 181.051 278.599ZM174.197 252.442L164.764 266.193 177.138 268.914 174.343 252.474ZM207.612 279.588C207.558 279.613 207.438 279.642 207.251 279.677 207.071 279.711 206.861 279.725 206.623 279.718V279.718C205.814 279.695 205.111 279.312 204.515 278.571 203.92 277.831 203.651 276.479 203.708 274.515V274.515C203.8 271.372 203.31 269.263 202.24 268.19 201.169 267.123 200.043 266.572 198.863 266.538V266.538L190.168 266.284 189.794 279.108 187.675 279.046 188.462 252.066 199.435 252.386C200.715 252.424 201.917 252.741 203.042 253.338 204.166 253.935 205.068 254.748 205.748 255.777 206.429 256.805 206.75 257.976 206.711 259.29V259.29C206.684 260.231 206.444 261.157 205.993 262.066 205.548 262.97 204.945 263.739 204.183 264.373 203.415 265.008 202.58 265.392 201.68 265.525V265.525L201.675 265.714C201.678 265.588 202.075 265.759 202.865 266.227 203.654 266.694 204.351 267.508 204.954 268.667 205.564 269.827 205.838 271.455 205.777 273.55V273.55C205.734 275.043 205.795 276.14 205.96 276.841 206.125 277.543 206.302 277.983 206.489 278.161 206.683 278.333 207.065 278.56 207.634 278.842V278.842ZM199.186 264.666C200.135 264.693 201.02 264.48 201.844 264.026 202.673 263.579 203.335 262.965 203.829 262.183 204.323 261.394 204.584 260.529 204.612 259.587V259.587C204.639 258.638 204.429 257.766 203.981 256.97 203.533 256.167 202.915 255.525 202.126 255.044 201.343 254.563 200.464 254.308 199.489 254.28V254.28L190.526 254.018 190.223 264.404ZM234.539 274.935L232.687 275.266 213.929 255.311 213.812 255.332 217.844 277.915 215.992 278.246 211.248 251.675 213.031 251.357 231.857 271.299 231.975 271.278 227.943 248.694 229.795 248.364ZM254.103 267.228L241.804 243.202 243.691 242.236 250.988 256.49 256.404 235.728 258.646 234.581 254.659 249.837 271.228 258.462 268.844 259.682 254.092 251.939 252.262 258.98 255.99 266.262ZM291.711 242.33L290.233 243.494 264.29 234.721 264.196 234.795 278.386 252.82 276.908 253.984 260.213 232.775 261.636 231.655 287.634 240.385 287.728 240.311 273.538 222.285 275.016 221.122ZM304.882 227.277C302.827 229.831 300.457 231.216 297.772 231.432 295.092 231.652 291.797 230.19 287.889 227.046V227.046L287.098 226.41C283.194 223.27 281.06 220.366 280.695 217.697 280.335 215.032 281.182 212.422 283.237 209.868V209.868C285.291 207.314 287.658 205.927 290.338 205.707 293.02 205.497 296.312 206.961 300.215 210.101V210.101L301.006 210.737C304.915 213.881 307.051 216.782 307.415 219.442 307.78 222.112 306.936 224.723 304.882 227.277ZM303.408 226.092C305.034 224.071 305.688 221.982 305.369 219.827 305.049 217.663 303.276 215.283 300.05 212.688V212.688L298.515 211.453C295.288 208.858 292.584 207.637 290.401 207.789 288.228 207.939 286.328 209.025 284.702 211.047V211.047C283.072 213.074 282.417 215.165 282.735 217.32 283.059 219.479 284.834 221.856 288.06 224.451V224.451L289.596 225.686C292.822 228.281 295.524 229.505 297.703 229.358 299.876 229.208 301.778 228.119 303.408 226.092ZM320.449 188.846L302.231 173.668 303.018 171.873 324.576 189.917 323.848 191.576 300.242 188.479 300.179 188.625 318.442 203.898 317.714 205.557 289.834 201.921 290.754 199.825 314.255 202.963 314.319 202.817 296.096 187.649 296.884 185.853 320.389 188.982ZM69.44 143.58C69.44 141.793 70.889 140.343 72.677 140.343 74.464 140.343 75.914 141.793 75.914 143.58 75.914 145.368 74.464 146.817 72.677 146.817 70.889 146.817 69.44 145.368 69.44 143.58ZM319.997 143.58C319.997 141.793 321.446 140.343 323.234 140.343 325.021 140.343 326.47 141.793 326.47 143.58 326.47 145.368 325.021 146.817 323.234 146.817 321.446 146.817 319.997 145.368 319.997 143.58Z" fill="#ffffff" data-fill-palette-color="primary"></path></svg></g></svg></g></svg></g></svg></g><defs></defs></svg><rect width="395.52" height="279.72" fill="none" stroke="none" visibility="hidden"></rect></g></svg></g></svg>